/* XPM */
static char *ea1db385d3b542d4e45ca06c753aa475fgrzhdcJJUdbZpZJ[] = {
/* columns rows colors chars-per-pixel */
"64 64 195 2 ",
"   c #050300",
".  c #0C0501",
"X  c #0D0A05",
"o  c #0B0708",
"O  c #0E0C09",
"+  c #120601",
"@  c #150B04",
"#  c #150D0B",
"$  c #190E0A",
"%  c #16120D",
"&  c #1B130D",
"*  c #1D1A0E",
"=  c #161511",
"-  c #1B1512",
";  c #1D1B14",
":  c #191718",
">  c #1E1C19",
",  c #22160D",
"<  c #22190F",
"1  c #211712",
"2  c #231B14",
"3  c #291D14",
"4  c #231D1A",
"5  c #291F19",
"6  c #1E2116",
"7  c #1E2119",
"8  c #22210F",
"9  c #252116",
"0  c #2A2216",
"q  c #2E2916",
"w  c #24221C",
"e  c #2B241C",
"r  c #25291C",
"t  c #2C291D",
"y  c #322417",
"u  c #33251C",
"i  c #38271D",
"p  c #332A1D",
"a  c #3A2A1E",
"s  c #34301C",
"d  c #262521",
"f  c #2B2522",
"g  c #272922",
"h  c #2D2A23",
"j  c #2E2D29",
"k  c #322721",
"l  c #382720",
"z  c #322D25",
"x  c #352C25",
"c  c #362D26",
"v  c #352E26",
"b  c #362F27",
"n  c #362D25",
"m  c #332C24",
"M  c #382A21",
"N  c #382B22",
"B  c #392820",
"V  c #3E2B22",
"C  c #3A2D21",
"Z  c #3D2D22",
"A  c #382924",
"S  c #3E2B24",
"D  c #392C24",
"F  c #3A2D25",
"G  c #3C2E25",
"H  c #3E2D26",
"J  c #3A2D23",
"K  c #322F2A",
"L  c #362D28",
"P  c #372E29",
"I  c #352E28",
"U  c #342D29",
"Y  c #382F28",
"T  c #382F2A",
"R  c #3A2E29",
"E  c #3A2F29",
"W  c #2F3125",
"Q  c #2F302A",
"!  c #373026",
"~  c #353125",
"^  c #343126",
"/  c #393127",
"(  c #3F3126",
")  c #3B3225",
"_  c #373826",
"`  c #37312A",
"'  c #35322B",
"]  c #393228",
"[  c #3B322B",
"{  c #39312A",
"}  c #3C3229",
"|  c #3C312B",
" . c #3B322D",
".. c #3B312C",
"X. c #3C332E",
"o. c #3E332E",
"O. c #3D342F",
"+. c #3B332B",
"@. c #37392C",
"#. c #3B3A2D",
"$. c #312F30",
"%. c #363532",
"&. c #3E3631",
"*. c #3B3631",
"=. c #373A31",
"-. c #3C3A33",
";. c #3D3B38",
":. c #412D22",
">. c #412D24",
",. c #402E26",
"<. c #402E24",
"1. c #412F28",
"2. c #413626",
"3. c #42342B",
"4. c #43392D",
"5. c #403730",
"6. c #423B34",
"7. c #4A3B35",
"8. c #443D3A",
"9. c #483E3C",
"0. c #3E4033",
"q. c #4C4236",
"w. c #44423D",
"e. c #4B443D",
"r. c #4F493D",
"t. c #53463C",
"y. c #54493D",
"u. c #474641",
"i. c #4C4641",
"p. c #474D43",
"a. c #4C4A43",
"s. c #4E4E49",
"d. c #544B44",
"f. c #594E44",
"g. c #524D49",
"h. c #594E48",
"j. c #5D5047",
"k. c #54524D",
"l. c #5C534C",
"z. c #545245",
"x. c #565350",
"c. c #5B5653",
"v. c #5C5A53",
"b. c #5E5C5A",
"n. c #61574D",
"m. c #63594F",
"M. c #645A50",
"N. c #625E5A",
"B. c #685E5C",
"V. c #65625D",
"C. c #69635E",
"Z. c #6A6461",
"A. c #676863",
"S. c #6C6A65",
"D. c #6C6C68",
"F. c #716C66",
"G. c #736F6A",
"H. c #6E716A",
"J. c #74726D",
"K. c #78736D",
"L. c #767672",
"P. c #7B7572",
"I. c #777A74",
"U. c #7A7B74",
"Y. c #7E7A7A",
"T. c #817E72",
"R. c #817D7C",
"E. c #7E8176",
"W. c #7E827A",
"Q. c #838275",
"!. c #83837B",
"~. c #83897F",
"^. c #858582",
"/. c #8B8684",
"(. c #878B83",
"). c #8B8C84",
"_. c #8E8B89",
"`. c #928D8A",
"'. c #96918D",
"]. c #DFDFD7",
"[. c #DDDFDA",
"{. c #E4E5DF",
"}. c #E9E6DD",
"|. c #EBEBE6",
" X c #EDECEA",
".X c #F2EDEA",
"XX c #EEF0ED",
"oX c #F3F2ED",
"OX c #F9F9EF",
"+X c #F6F5F1",
"@X c #F8F5F0",
"#X c #F7F8F0",
"$X c #FAFAF5",
"%X c #F9F7F8",
"&X c #FEFEFC",
/* pixels */
"$ 1 , 2 < 2 , < 1 - - - ; - - ; ; ; - ; ; ; 1 & < , , , , , , , 1 % - - 1 & 1 2 & 1 & 1 2 1 5 ; * 2 1 * 2 1 1 3 2 2 5 5 3 2 - 4 ",
"5 x N D M M l n k m h h h m z z K K *.' m k x / M M D G C G ( G u m x E N x x x E k [ n m E P P ^ ^ [ ^ [ } } | | | O.*.E O.*.5 ",
"2 x N M i i l N N h k h h P [ k f P x x } E A G S S <.<.V <.>.V D P m x e k k e k x n k E [ f n m ^ / N k n [ [ |  .P  .P x  .2 ",
"2 D l i u i l u 5 5 m P m k N e k } N D l u 1.1.<.<.<.<.V <.>.a e f P n n k x k k [ x k f 0 m n ^ ^ [ ^ n E n e e E E  .*.P  .m ",
"3 D u i u a M 0 + @ 5 n k 0 u u p k } p + + y G G V a a a V a y . % e n E e u k k k N e @ + 0 k n m N n ' n e @ @ 0 | P  . .n e ",
"2 N 3 y y u i 3 3 2 5 N N N C C p p } 0 , 3 2 3.( V M i a C a y 3 4 3 n k k e k e n n 3 2 2 1 n m z ^ n n z e 2 2 5 *. .E  .[ 9 ",
"3 D u i i a V u 4.C u u u u y y y p p 0 ( ( 0 ( C i i y u i p 0 5.K e z k n p t e [ N 0 | E 3 D p ^ z h h k z [ [ f  . . .m [ e ",
"2 G u M i i <.a u i l u u y i V u i p ( y 0 ( y i a M i y a C i h h ' ' +.z m e e k N D k e x u p h e e k z m n m  .P h  .n O.e ",
"3 D u M i i a >.M M l l i i i a a a a V V i i i i i M M M i i N z z m z z z p e e p k k x k k k t h h t h h m z z z k P P z 5.e ",
"0 E i i i a i y i i u u u u u i i i i u u y y u u u i i M i i i e h f h h h e e e u e e k k u k e e t t f f f h f h z [ ' z O.0 ",
"0 D M N u a 3.4.E E D D D } ( 3.3.3.3.3.} 3.} G } } 3.3.4.3.3.O.{ %.*.*.*. .[ n [  .| [ O.O.| | n ' ' +. .{ ' ' *.{ ' z P ' -.0 ",
"5 N D D i M 7.y.d.f.d.t.d.d.d.y.f.d.d.d.d.d.d.d.d.d.d.f.h.f.f.f.g.g.g.g.d.d.d.r.d.d.d.d.f.d.d.f.r.i.d.d.d.a.i.i.e.e.i. .P  .5.0 ",
"0 N N D G 3.7.G 3 e e 5 0 5 2 2 9 9 2 4 4 4 w w 4 4 4 9 w 9 9 9 w 4 4 4 4 4 ; ; 9 3 1 1 5 2 2 0 3 4 5 9 w 9 4 4 4 *.k.6.P [ 5.e ",
"5 [ N N G 7.t.2 + - - & & & $ & % & & & - - = % % % % % - & % % % # % % % % % % @ & & & & % & & & & & & - - = %   w h.-.' *.6.e ",
"9 O.N N G 6.l.0 1 f h w f e 0 e e h e 5 5 f h f f f f f f f e 0 f f f f f f e e 9 f e 2 2 e f e h h h m z j h h % h k.-. .5.5.e ",
"e +.e D 3.3.l.e - h m w f e 0 e f h ; . . ; f f f f f e e f e 5 e e e f e e e w e h 2   . ; f f h m z z ^ z h h - e h.[ n [ 5.k ",
"3 +.D / } 4.l.e - U f m 9 0 9 w e f & ; ; % g 7 7 d w 7 d w ; w e 2 0 e 0 e e e e e % ; 4 % h e h ^ t t q r r z - z l.+.N N O.h ",
"0 3./ } +.5.l.f 1 U f f k / ^ ' ' j ^ =.' d Q Q ' Q j j j j j ^ ^ N N n n m h ^ z ' h ' -.h h ' ' #.+._ ^ ^ r z - P n.3.C N [ e ",
"0 O.D } } O.h.e - m f e ' ' q t ^ ^ h - w h j j Q j j j j j j h t m m z ^ z h h h w w ; % h ^ j -.+.h t ~ #.h h - n n.3.N N n 0 ",
"0 [ n [ [  .d.e - f h e  .h * q w w w h h h d j w w d w w w w 9 e 9 e 9 ; 4 9 * % - ; ; w w w h r j r 9 t @.h K % m n.+.N p n 5 ",
"0 [ n [ ' [ i.9 - f f e  .h 9 z.P.L.s.' ; j k.D.!.L.x.' w j a.F.T.D.a.^ w h a.D.H.K.s.w 9 ' x.U.!.!.z.r r @.h K - z n.3.N k n 5 ",
"9 n n n n ' e.w - f f e  .m t K.|.oXk.X Q w s.|.+XoXL.% w h v.}.$X$XD.% j - w.].&X#XP.6 j 6 V.|.&X|.!.t r -.j h - n n.3.N p n 3 ",
"5 n z z m ' w.4 - f f e  .h 0 T.$X&XV.X ;.h b.+X&X&X~.4 e P S.oX&X$XU.d %.; s. X&X&X(.w ' h J.&X&X$X(.r r ' j K - P n.3.N u N 3 ",
"5 P ^ z m { w.w - g f f -.^ 9 Q.$X$XA.# ;.d b.oX&X&X!.% z -.S.oX&X&XL.w ;.4 s.|.&X&X`.d 8.j J.$X&X&X~.g W -.j h - P M.4.N p n 5 ",
"5 { z z j ^ w.w - d f w  .h q Q.$X&XV.O ;.d b.+X&X&X/.- h { Z.oX&X&XY.> ;.4 c..X&X&X'.f 8.h J.&X&X$X(.r h w.K j - x n.4.( N O.3 ",
"5 ' h h h z w.w = d f w  .h q Q.$X&XV.O ;.d N.+X&X&X^.- m  .Z.oX&X&XY.4 ;.4 k..X&X&X`.f 6.h J.&X&X$X(.r h -.j K - x n.6.( N  .5 ",
"4 ' h h h z w.w = d f w  .t 0 Q.$X&XV.O ;.d N.+X&X&X^.- h { Z.oX&X&XY.5 ;.> g..X&X&X`.f 6.m K.&X&X$X).h t =.h j - x n.4./ N [ 5 ",
"4 P h z z ^ w.4 = d g w  .t 0 T.$X&XV.O ;.d b.+X&X&X!.- h { V..X&X&XP.w 8.4 g..X&X&X`.f 8.m K.&X&X$X).W h #.h h % k j.+.C N [ 5 ",
"5 P h z z ' u.w = d f d  .t 0 T.$X&XV.X -.f b..X&X&XR.- j %.b. X&X$XJ.w 8.4 g.|.&X&X`.f 8.K J.&X&X$X).r r -.h f & u d.C N N [ 4 ",
"9 ' h h h ^ u.w = d f w { t 0 T.$X&XV.X *.d b..X&X&XY.- j %.b. X&X$XJ.w w.w s.|.&X$X`.f 8.U G.$X&X&X).9 w #.h f & u t.i N m ' 4 ",
"9 ' h h h ' u.d = d d w ' e 0 Q.OX$XV.X -.f b.oX&X&XY.: $.;.b. X&X$XJ.d w.d s.|.&X&X_.f 8.h J.$X&X$X(.w q #.h k & k t.p N m P 4 ",
"5 ' h h z { u.w ; g d 4 ^ e 9 Q.OX&XV.X -.f N.+X&X&XY.: ' ;.v.|.&X$XJ.d w.d s.|.&X&X`.f 8.h J.&X&X$X).h t @.e k & k y.i N k n 4 ",
"9 ' h m z { u.w - d d d j d w Y.$X&XZ.@ 6.k V.oX&X&XP.- U *.V.|.&X%XJ.w w.w k.|.&X&X`.h e.m F.&X&X$X).t r @.r p & N y.V i N n 1 ",
"9 ^ t t h z u.w - g d d j d w Y.$X&XZ.@ 8.m V.oX&X&XY.1 U  .N.|.&X%XK.5 6.w k.|.&X&X`.h e.m F.&X&X$X).t t #.r t & N y.a p i N 1 ",
"9 ^ e e t z w.w - g d d j w 7 W.$X&XZ.# 8.m V.oX&X&XR.; U { N.|.&X&XK.5 6.w k.|.&X&X_.f e.h D.$X&X$X).t h #.r h & p y.p y p k 1 ",
"9 z e e h z e.w - g d w j w 6 W.$X&XZ.# 8.U V.oX&X&XR.4 U ' V.|.&X&XL.5 6.9 k.|.&X&X_.e 8.f S.%X&X$X).h W -.h h & k y.p y p z 2 ",
"4 z w e h ' u.w - f d w j w w E.$X&XZ.% 9.P V.oX&X&X^.4 K { C.oX&X&XP.5 6.9 k. X&X&X_.e 8.f A.&X&X$X).h W 0.h h % k d.N t t z 2 ",
"4 z e h z +.i.9 - f d w j r 9 !.$X&XZ.# 8.U V.oX&X&X^.> K { Z.oX&X&XP.5 6.9 k. X&X&X_.f 6.f A.&X&X%X).h W -.h h % k d.N t t m ; ",
"4 z e h z +.u.9 - f w w j w w Q.$X&XZ.# 8.m V.+X&X%X^.4 U { S. X&X&XP.3 5.5 x. X&X&X_.e 8.f A.&X&X%X).h h -.h h % z d.^ t t m ; ",
"4 z h h z ' e.9 - d w > h w 9 Q.$X&XZ.# 6.k V.oX&X&X/.4 T  .S..X&X&XP.1 O.4 k. X&X&X/.e 8.f D.%X&X%X).g h =.h h & z z./ p t z ; ",
"4 z h h m ' i.9 % w > w j w w Q.$X&XF.@ 8.m N.+X&X&X/.4  . .C.oX&X&XP.& 3.1 k. X&X&X`.e 8.h D.&X&X&X(.h h =.h h - m f./ p m j ; ",
"9 ^ h h m ' i.9 = w ; > ^ h w Q.+X$XB.@ 7.| N.oX&X%X`.h U  .G.|.&X&XP.& O.& g.|.&X&X'.5 8.h D.+X&X&X_.h h ' d h % h f./ p k z 4 ",
"9 n k m k [ i.9 - w > > ^ h 9 E.$X&XC.& 7.E V.oX&X&X/.5 P *.G.@X&X&XL.& ^ ; k. X&X%X`.f 8.f D.&X&X+X).h w ' d h % f d.) e t k 4 ",
"9 ^ k k k [ i.w - w w w ' g 6 E.oX$XC.$ e.P C.oX&X&X/.f P *.G.oX&X&XL.& O.; a.|.&X&X`.e 6.w A.%X&X&X(.r w ' h f % u d.C e e k 2 ",
"3 n k k k ' i.w - 4 d w Q 9 9 E.&X&XV.# e.' C.+X&X&X/.f K *.F.+X&X&XL.; +.4 s.XX&X&X`.e 6.h S.&X$X$X!.r t ' f e % e y.a y y p 1 ",
"3 n k k k P i.w - w d d Q w r H. XoXv.. h h c.|.&X+XU.% ; f b.|.%X&XJ.. e & 0.[.&X$XP.% z 4 x.oX&XoXE.r 9 t e h $ 0 t.C u i N 1 ",
"0 [ k k k n u.4 - d d d ' g 7 p.I.H.w.K ; w a.J.W.U.k.j 4 j a.U.(.L.k.^ 9 w a.L.^.L.k.m 2 r k.J.!.P.a.w 0 m 9 0 $ 0 t.V u u i 2 ",
"0 [ z k k P i.4 % d d d ' d = 9 7 7 - * ; ; w w 7 w 7 w - ; ; - ; w ; 4 9 w 7 w w d w 9 4 ; ; 7 w ; 9 ; 8 ^ 3 0 @ 0 y.( y y y , ",
"4 -.h f m P u.4 - f w w j ' Q j ^ 9 h h - 6 h h h h h h h r e 9 w w h ^ ' ^ Q ' ^ Q Q j w w Q ' ^ ^ s s p u e 3 @ 2 q.a a i 0 , ",
"9 -.K z K K u.4 - f w w h h h f ^ r h 9 j ' 7 j h h r r e e e e e e h z j h h j h g h g j j g j m ~ ) s u 0 2 2 @ 3 t.p u 0 0 < ",
"9  .z z m z u.4 - f f w f f d d h h h ; > w = h w w w 4 4 4 5 4 4 4 9 w 9 4 w w h d w = w w = d w e t q 0 0 2 2 + 3 y.p p 0 0 & ",
"9 K f h f K i.4 - e f w f d f h f f f > O o : d d w w w w w 5 5 w 9 w w w w w d d > j w   X > h h r e 0 0 0 0 5 @ 5 t.i u 3 0 & ",
"9 z f f h  .i.2 - e f f f f h h m k U U 4 4 K h f f f w e f f 5 w w w w w 4 w w h h d d d d h K K h 0 9 e e e 5 @ 5 e.p e 1 0 % ",
"9 ^ h h m  .e.4 . % # % % % - & & $ - - - 4 - - - - & % # % % $ % % # # # # # # O # # = = % = = - - & & & & % - . 2 5.p 0 1 5 % ",
"0 n k k k n e.k 2 5 5 e e 0 e 0 3 3 3 2 5 0 4 9 0 0 2 < < 2 2 1 4 2 ; 4 4 4 2 ; ; 4 - - w d > w d w 9 4 4 4 4 4 4 h 5.k 0 9 9 % ",
"9 n k z x n r.8.r.i.i.d.d.d.d.y.y.f.t.t.r.e.d.r.y.y.y.y.y.y.y.r.i.u.u.i.d.d.d.i.w.-.i.a.u.l.c.c.v.x.z.z.l.v.c.c.g.i.8.t 9 0 e - ",
"3 [ k e E x x } O.| 3.n O.3.[ / ) 2.( ( 3.+.[ / 2.) ) ) ) 2.2./ ' ' { z  .n n n ' z k O.5. .6.-.;.=. .'  .6.8.8.6. .m e e 0 e 4 ",
"3 [ m e x k k N 3 e u n n p e u u p ( C e e e N p u p p p a ( C 4 9 e h e 0 0 e 9 2 k [ h e z z K h r r m ^ P m h h k e 0 0 e 1 ",
"3 n x k k e 0 3 3.} u D N u N N e p D p O.-.e / m m N p N / G k +.j e h 3 0 0 u N N N k [ +.h ' j h q q m ^ [ T P k t 9 9 0 k 9 ",
"0 n k k k k u , 3 2 2 M i u u 0 y n n 4 3 4 2  .z m N N D } M 3 9 ; 9 z h t u e e n N 0 3 3 9 ' ' z t q t m e 2 2 e m t 0 0 t 2 ",
"2 k u u u u u 1 + @ u N i u y e k h P f X X w h h h k N / O.E e X X 4 h e 9 e e e e N e @ @ h z ' ^ p t ~ / 0 # + 2 N / p e k 4 ",
"2 x N N u u N u u 0 M u 0 y i D p 9 e h 4 4 j w e e t p p n D m f d h h f 9 k k p e e p 3 3 ' t e h p t p ~ m e 5 e n p N k n 9 ",
"3 D D N i u N i } G a u i M C / ^ ^ z h h h h ^ h h m m p k D E K h h h h f e e e k k k n m h z h z m t e e m P m k k e k p k - ",
"& 0 2 2 3 2 2 , , 0 < 3 3 3 3 3 9 * 9 4 ; w - ; 4 * < < < 2 2 2 > w > 4 ; 4 1 2 3 & 3 2 4 9 ; 4 4 ; * < < < - 1 1 1 1 , & & 3 % "
};
