/* XPM */
static char *_bb7131d5adc42fa9a488815d9e7b25fRBC2ed7RaROTAWaQ[] = {
/* columns rows colors chars-per-pixel */
"64 64 119 2 ",
"   c None",
".  c #0F0C37",
"X  c #0B0938",
"o  c #110E37",
"O  c #130F38",
"+  c #1E1836",
"@  c #171238",
"#  c #191539",
"$  c #1D193E",
"%  c #2D2336",
"&  c #3A2E37",
"*  c #32293F",
"=  c #705834",
"-  c #2D2745",
";  c #5F4F46",
":  c #584A4B",
">  c #514752",
",  c #977B47",
"<  c #877866",
"1  c #BE8C11",
"2  c #C18E14",
"3  c #C9961D",
"4  c #CA981E",
"5  c #CB9A25",
"6  c #D19F26",
"7  c #D6A727",
"8  c #DAAA26",
"9  c #D5A52C",
"0  c #D8A62E",
"q  c #D7A829",
"w  c #D9AB2E",
"e  c #D6A930",
"r  c #DBAD33",
"t  c #D2A73A",
"y  c #DBAC39",
"u  c #DDB036",
"i  c #DEB13B",
"p  c #E1B43D",
"a  c #AF8D46",
"s  c #AB8B4B",
"d  c #AE9562",
"f  c #D0A94C",
"g  c #E2B543",
"h  c #E4B946",
"j  c #E5BA4B",
"k  c #E9BE4E",
"l  c #E7BD51",
"z  c #E8BE53",
"x  c #E6BE5A",
"c  c #E2BD62",
"v  c #EBC256",
"b  c #E7C05C",
"n  c #ECC35C",
"m  c #E4C066",
"M  c #EEC662",
"N  c #EEC866",
"B  c #EEC96B",
"V  c #F0C764",
"C  c #F1CA66",
"Z  c #F3CD6B",
"A  c #F5D16D",
"S  c #E8C673",
"D  c #EFCC71",
"F  c #EDCC7A",
"G  c #F3CE73",
"H  c #F6D273",
"J  c #F8D575",
"K  c #F4D27B",
"L  c #F9D778",
"P  c #FAD678",
"I  c #FAD779",
"U  c #FBD77A",
"Y  c #F9D67C",
"T  c #FAD879",
"R  c #FBD87A",
"E  c #FBD97B",
"W  c #FDD878",
"Q  c #FCD978",
"!  c #FBDA7C",
"~  c #FCDB7E",
"^  c #FDDC7F",
"/  c #FBDA7C",
"(  c #D4BC86",
")  c #F5D581",
"_  c #F5D683",
"`  c #F8D581",
"'  c #F9D781",
"]  c #F8D682",
"[  c #F6D886",
"{  c #F7D986",
"}  c #FADC82",
"|  c #FDDC80",
" . c #FFDF81",
".. c #F8D887",
"X. c #F9D886",
"o. c #F6D988",
"O. c #F7D98D",
"+. c #FBDB89",
"@. c #FADB8D",
"#. c #F8DC8F",
"$. c #FBDC8E",
"%. c #FBDD91",
"&. c #FADE92",
"*. c #FBDE92",
"=. c #FADF94",
"-. c #FADF94",
";. c #FEE084",
":. c #FBE093",
">. c #FFE192",
",. c #FBE096",
"<. c #FCE097",
"1. c #FBE199",
"2. c #FCE198",
"3. c #FCE29A",
"4. c #FDE29A",
"5. c #FEE49A",
"6. c #FEE49B",
"7. c #FDE39C",
"8. c #FEE7A4",
/* pixels */
"                                                                                                                                ",
"                                                                                                                                ",
"                                                                                                                                ",
"                                                                                                                                ",
"                                                                                                                                ",
"                                                                                                                                ",
"                                                                                                                                ",
"                                                                                                                                ",
"                                                                                                                                ",
"                                                                                                                                ",
"                                                                                                                                ",
"                                                                                                                                ",
"                                                                                                                                ",
"                                                                                                                                ",
"                                                                                                                                ",
"                                                                                                                                ",
"                                                                                                                                ",
"                                                                                                                                ",
"                                                                                g                                               ",
"                                                                        b                                                       ",
"                                        7                                       ^                 7                             ",
"                                      7 7                                     J I Z               7 7                           ",
"                                      7 w h                                   ! Z M l           7 7 7                           ",
"                    b               i j Z T       v                         J J C v i w         7 7 q r                         ",
"                        T Z               J       l B                   w n T Z M j w r j       q                   p           ",
"                        J M j             M                           8 p W J C z u w p N *.       .I                           ",
"                      I Z l r i     C M n j                                 Z n g w r l ` 1.K   I H Z C             I           ",
"                  i A H n i r l ..    j i r               n j G     X         l r w g Z <.o.l   Z V n     j M     ! Z M         ",
"                  v J C j r p G *.    w w w                 b                 i w u v +.6.Z r   n j g           ~ H V j         ",
"                h H Z n p u v >.K i   r i g                                   w r h Z ( < , 5   i r w         A I C z r r j     ",
"                H J C f = & * > s 6   j M G                                   w i l : X X X     w r r       v I Z n p w p Z ,.  ",
"                  Z ; X X X     X     ` *.4.                        .               X .     .   p j b     j H H M j r u n *.{   ",
"          j l     # X             X   6.#.)                           .           X .     . .   Z K @.    H J C l r r g ` :.b r ",
"          h B     .       .       X   Z z g     .               . .     . . .   . .     . .     4.4.=.    T Z n p 9   @ - d r 4 ",
"                .       .         X   p 9 5                                   . . . . .         { K b       M h w         X     ",
"                .       .       . X                                       . . . .                 a 0       k r r           X   ",
"                .     .       . .     X X X   .   . .   . .   . . . .   . . . .   . . . .   .   X X       X   e h           .   ",
"          q           . . . . .     .   . .   . . . . . . .   .   .     .   . .   .   .     . . . .         X % c O.        .   ",
"        7             . . .         .   .   . . . . . . .   . . . .   .     .   . . . .   . . .   .             $         . .   ",
"      7 q           . .   . . .   . . . .   . .   . .   . . . . . .   .   . .   . . . .   . .     . .             X X . . .     ",
"    7 r v           .       . . X   X   . O O o         X X   .   . .   .   .     .   . . .       .                   +         ",
"    q v J                             } F S B m C C                         .                                                   ",
"    h J C       l x           8 w h A ;. .W A Z C V n z j i w q w                                                               ",
"    A I j       l D       7 7                                 q w r i g j V F                                                   ",
"    ! A l r                       X                                       C Y #.7.8.=.K N j p 0 5               z               ",
"    H C b b                       X               .                                                                             ",
"    C n j h [                 t   . . .     . .   . .   . .   .     . . . .                                           l N       ",
"      j r w h M z p       y 5     .   . .   . .   . . . . .   .     . . . .                                           l M       ",
"        w r j G ) b y 9 3 1                                                                                                     ",
"          g Z =.=.N y 3 1                                                                                                       ",
"            ..4.K g 6 2                                                                                                         ",
"                                                                                                                                ",
"                                                                                                                                ",
"                                                                                                                                ",
"                                                                                                                                ",
"                                                                                                                                ",
"                                                                                                                                ",
"                                                                                                                                ",
"                                                                                                                                ",
"                                                                                                                                ",
"                                                                                                                                ",
"                                                                                                                                ",
"                                                                                                                                ",
"                                                                                                                                "
};
