/* XPM */
static char *e4388728299b4884ad3d46fba2b20139OxmLSoSAIvp0mf99[] = {
/* columns rows colors chars-per-pixel */
"48 48 252 2 ",
"   c #3B2C17",
".  c #3B371B",
"X  c #3D3C23",
"o  c #3E3727",
"O  c #3A3935",
"+  c #45351C",
"@  c #4C341B",
"#  c #473A1A",
"$  c #563A1C",
"%  c #543E0D",
"&  c #443A24",
"*  c #4B3B24",
"=  c #4D3C2B",
"-  c #463827",
";  c #523D23",
":  c #523D2B",
">  c #573927",
",  c #453C34",
"<  c #493B36",
"1  c #553A31",
"2  c #663A30",
"3  c #3A401E",
"4  c #3F4035",
"5  c #34432C",
"6  c #57441B",
"7  c #4C422D",
"8  c #4A4629",
"9  c #534224",
"0  c #53442A",
"q  c #5C452C",
"w  c #594928",
"e  c #4B4331",
"r  c #464535",
"t  c #534534",
"y  c #554934",
"u  c #5C4C33",
"i  c #58493A",
"p  c #5A5438",
"a  c #565029",
"s  c #62442B",
"d  c #67492B",
"f  c #73492C",
"g  c #64522C",
"h  c #6B542B",
"j  c #624B32",
"k  c #624C3C",
"l  c #674834",
"z  c #734E36",
"x  c #645533",
"c  c #6C5333",
"v  c #6C5B3B",
"b  c #67563B",
"n  c #755C3C",
"m  c #7C5C3D",
"M  c #765636",
"N  c #77542B",
"B  c #6C633C",
"V  c #77633A",
"C  c #3C4240",
"Z  c #544943",
"A  c #595341",
"S  c #6A5744",
"D  c #7B5543",
"F  c #755C44",
"G  c #795A48",
"H  c #70544A",
"J  c #6D6448",
"K  c #7C6B45",
"L  c #7C6D4A",
"P  c #776447",
"I  c #786955",
"U  c #7C744E",
"Y  c #5D6347",
"T  c #83533C",
"R  c #86693D",
"E  c #88753C",
"W  c #92653E",
"Q  c #885B4C",
"!  c #836C4C",
"~  c #876748",
"^  c #94684B",
"/  c #8C7B4D",
"(  c #8A7648",
")  c #987649",
"_  c #876A55",
"`  c #966B58",
"'  c #8C7453",
"]  c #897859",
"[  c #9B7B53",
"{  c #967958",
"}  c #A37D5C",
"|  c #A37759",
" . c #B8795D",
".. c #A46E52",
"X. c #997764",
"o. c #927669",
"O. c #A97A65",
"+. c #AA7B68",
"@. c #B77C67",
"#. c #AD766D",
"$. c #C77E67",
"%. c #CB7E74",
"&. c #9A834F",
"*. c #998658",
"=. c #948C59",
"-. c #A58659",
";. c #BD8D5D",
":. c #B48959",
">. c #A89359",
",. c #B8985A",
"<. c #A28D4A",
"1. c #BEA95C",
"2. c #BAA35C",
"3. c #948365",
"4. c #9A9365",
"5. c #A48C63",
"6. c #AC8D64",
"7. c #A88667",
"8. c #B58C63",
"9. c #B98868",
"0. c #AA9668",
"q. c #BD9365",
"w. c #BB9A64",
"e. c #BD946B",
"r. c #BD9B6D",
"t. c #B39668",
"y. c #B78A75",
"u. c #B59674",
"i. c #BB9571",
"p. c #B49C74",
"a. c #BB9B73",
"s. c #B99D78",
"d. c #AD9079",
"f. c #BBAA64",
"g. c #BCA26C",
"h. c #BAA969",
"j. c #BDA274",
"k. c #BCAB77",
"l. c #B1A96E",
"z. c #C38E5B",
"x. c #C7955A",
"c. c #D1975B",
"v. c #C7AC5D",
"b. c #C28365",
"n. c #CB8365",
"m. c #C5856B",
"M. c #CC856B",
"N. c #C68A6C",
"B. c #CA8A6D",
"V. c #C98A65",
"C. c #D5896A",
"Z. c #C39564",
"A. c #C39A65",
"S. c #CB9B65",
"D. c #C4966B",
"F. c #CC946B",
"G. c #C49B6B",
"H. c #CB9D6C",
"J. c #CA9463",
"K. c #D49B65",
"L. c #D4986B",
"P. c #C48C73",
"I. c #CC8B72",
"U. c #C48D7B",
"Y. c #CB8D7B",
"T. c #C68675",
"R. c #D28C74",
"E. c #D28D7A",
"W. c #D78676",
"Q. c #CC9375",
"!. c #C49D73",
"~. c #CA9D72",
"^. c #CD937C",
"/. c #C49C7A",
"(. c #C69777",
"). c #D39375",
"_. c #D29D73",
"`. c #D4937C",
"'. c #DC947C",
"]. c #D39C7B",
"[. c #DA9A7A",
"{. c #E79978",
"}. c #E58D75",
"|. c #C4A463",
" X c #C3AB64",
".X c #CBAC64",
"XX c #C5A36B",
"oX c #CBA26D",
"OX c #C4AC6B",
"+X c #CAAD6C",
"@X c #D4A46D",
"#X c #D5A666",
"$X c #C4B465",
"%X c #C4B26C",
"&X c #CCB36C",
"*X c #CBB567",
"=X c #D3BA6D",
"-X c #D3B769",
";X c #C4A175",
":X c #CCA373",
">X c #C5AC72",
",X c #CBAD73",
"<X c #C5A37A",
"1X c #CCA47A",
"2X c #CCAA7B",
"3X c #C3A978",
"4X c #D3A473",
"5X c #DAA674",
"6X c #D4A975",
"7X c #DBAB75",
"8X c #D1A57B",
"9X c #D4AB7C",
"0X c #DCA97C",
"qX c #CCB373",
"wX c #CDBB71",
"eX c #CDB479",
"rX c #C6B575",
"tX c #D2B575",
"yX c #D3BB74",
"uX c #D3BB7B",
"iX c #D8B778",
"pX c #E2AB79",
"aX c #E8B67B",
"sX c #E2A76D",
"dX c #D7C479",
"fX c #D8C569",
"gX c #E6C678",
"hX c #B39E81",
"jX c #BEA982",
"kX c #D49584",
"lX c #DB9784",
"zX c #CA9383",
"xX c #E79987",
"cX c #EB9A8C",
"vX c #CCAB83",
"bX c #C8A784",
"nX c #D4AC82",
"mX c #D9AF82",
"MX c #D7A985",
"NX c #C8B583",
"BX c #D4B382",
"VX c #DBB283",
"CX c #DAB888",
"ZX c #D1B392",
"AX c #E6BA87",
"SX c #ECB089",
"DX c #DCC283",
"FX c #D7C588",
"GX c #D4CB8F",
"HX c #E7C987",
"JX c #E2C495",
"KX c #ECD68F",
/* pixels */
"I.Q.I.m.E.@.s J ,XXXA.oXG.A.H.D.D.H.;.) # v ZX7X6XoX:X1Xe.G.q.9XS j vXA.D.G - 4 : e r t O.'.n.V.",
"b.N.B.B.'.U.z 0 :.:X8X:X4X4X_.5X:X9XvXd.w s.9Xx.8.:XA.G.G.:X:XH.^ $ u J t q ) :.n * - = D @.I.I.",
"I.I.N.V.M.^._ 0 k S I _ _ ' ' 7.6.u.] w ) AXS.7X;X1XG.4X:X;.!.-.: + x n 6.mXAX5X;X[ n * + F y.kX",
"R.I.F.L.n.`.+.S e -   & 0 v L V @ b 8 w DX@Xz.Q.:XG.Z.S.H.1XbXc O P BXpXsXS.G.j.A.8Xe.{ p + ` cX",
"T.m.B.B.n.`.O.l % -.g.>XuXDXKX&X{   e p [ 9XD.1XoXZ.:X8X/.{ F & m CX<Xq.e.:XH.S.oXH.Z.;X3.9 @.}.",
"E.Y.P.I.I.`.~ @ <.KXHXtXyX*X=X=XyX*.y < i ` <XXXoX9X/.~ F q + S aX@X:XvXu.i.4XS.H.H.4X!.n s lX{.",
"O.7.y.y.U.9.z B KXFXf.f.uXrXh.h.*XDX5.u = - ! j.u.! u * = * x ZXmXq.4X;.H.~.~.G.D.A.:Xt.q _ zX .",
"T z z M D f g GXgX,..X=X|.&XtXtX>X.XgXf.B 8 7 S 0 & Z I i * M ;X!.:XG.H.~.G.H.7X0X4X,X6.> H D M ",
"o & 8 + 9 6 6 NXqX,X2XOX.X-X%X>X|.+X%X-X:Xp 5 2 Q @.[.'.@.z ; p A.:X~.H.S.7Xa.o./ I K g < < o < ",
">.>.k.NXjX! 9 ] fXv. X>X>X2X>XqXiXOXf.tXG.8 p U.kX`.B.M.`.P._ j d u.s.<XbX~ @ 0 @ : * 0 u K ( *.",
"gXgXiXuXBX0.K P %X$X*XqX3XvX,Xv.OXh.h.yXw.w S xXI.R.R.C.R.`.^.9.G l p.0.b l ' / /.7.7 7 0.HXdXdX",
"|.tX+X XtXuXw.E S ' k.dX%X%X&X&X XrXrX&Xw.w ` {.M.$.R.R.M.M.R.'.Y.^ N f /.CXAXAXaXqXJ & >XHX6X$X",
"eXqXOXOX XOXyX%X_ u j / f.dXyXeX=XuXqXuXk.9 O.'.'.m.m.).).M.M.M.).Q.d | AXS.S.J.c.#X0.: &.tX2X|.",
"%X%X%XwX%XOX,XeX%X/ u = v / *.5.>.0.t.>Xl.j U.).B.N.I.Q.I.B.R.R.i.` l ZX6Xx.oXnX_.9XbXG 6 0.DX.X",
"OXOX%X%X%XeXeX>X-X%X/ 0 = i 0 * 6 0 w g a l kXV.B.I.B.B.I.I.B.I.d.> 7.JX:.A.!.!.e.(.0Xe.0 B rXyX",
"6X,XtX&X%X%X X$X|.dXrXL y , e J A r - * 3 _ cXC.B.I.M.I.E.I.B.`.Q f CX#XS._.4XA.g.D.c.7XI o =.CX",
"2XXX>X,X%XwX=X&X,X,X&.g X y 8.SX4XG.&.V g z ` kXx.F.y.9.F.V.B.@.0 6.aXx.~.i.<XA._.a.1XpX:.; L eX",
"1.wXqX XqXtXOX,X=X/ i < P BXHXZ.G.:X9XnX<X6.^ M T.lXI.M.xXW.E.Q p <X4XZ.H.1Xq.H.;./.G.J.9Xj g >X",
"wX$Xf.%XyXOXXXBX0.y , X.AX#X;.vXq.q.D.D.~.CXj.V 2 D ~ ^ ` #.d.k y ! vXG.q.G.H.D.Z.G.~.Z.VX' $ *.",
"eXeXtX%X2.OXeX,.t u p.HXc.K.0Xa.1XA.H.4XF.q.A.;XI . 8 p & t & . + + { ZXXXoX4XD.H.q.H.G.~./.w P ",
"XX+X+XeXBXFX0.6 F BXaXc.Q.(.G..Xq.~.XXG.:X4XH.F.r.n t o v *.( [ *.L w -.BXA.H.8XH.6XA.q.D.8Xm 0 ",
",.dXuXg.5.L p e V 1X5XJ.:X<X1XH.~.:Xw.w.XXq.V.[.aXt.S * NXKXHXAXJXk./ h t.~.H.:X~.4XZ.;X~.H.i.7 ",
"K 0.~ 6 6 @ * = @ s [ ;XXXG.8X].!.:XD.;.:XVX<X6.' v w V uX X|.%X,XOX%X&.R MX~.A.e.;.A.2X:X@X/.A ",
"r , + ! j.p.6.{ ] P p 0 G O.:.x.<XH.5X0XD.-.K a , x t.HX#XiXqXh.oX*X$XrX~ ^ nX|./.Z.:X;X~.K.N i ",
"6 ~ <XJXVX@X7XpXaXaXH.[ p o u c ! -.t.! S , , k >.DXyXqXOX+X+X&XtX&Xv.$X5.1 7.#X~.:X|.,X0.p 8 > ",
"!.CX9XA.A.D.q.:XD.q.1X4X4X-.t C , - ; $ 0 9 h CXDXqXf.2.OX,X+X+XOX,X+XwXk.u M ,Xr.J.pX} s > > K ",
"4XH.A.H.H.1X<X<X<Xr.G.z.pXG.; O ! u.a.V 9 0 9 0.+X XHXtXeX,XeXqX%XeXXX2.eX' ; u.9XMX[ 7 , I y.VX",
"H.Z.H.7XS.D.G.e.q.4X4XvX{ @ m 1XaX7X7X2Xp.] u I tX+X&X|.OX>X>XOXOX,XiX+XuX-.@ 3.nXn . i t b p.8X",
"!.mX4Xz.S.4XH.Z.7XA.1XP u hXmXK.G.G.w.8.8XVX(.W ,.tX*X&XqXOXOX%Xf.%XtX|.OXh.g i b + _ kX..$ # L ",
"j { vXmX4X:X8XVXD.t.w c 1X0XH.!.].8X1XD.Z.S.4X) ( eX%X X XeXqXOX%X1. XOXeXFX( : z U.lXb.'.'.^ = ",
"e 0 ! u.u.7.' F v $ n 9XpXz.q.s.L.F.H.:XH.G.!.5.c p.GXuXOXeXeX+XeX2.&XCXbX=.v P xXW.@.P.N.$.Y.X.",
"r e * 9 q * o , o P 9X4X8.2X~.A.G.r.g.;XG.4XD./.F w V E >.g.>XeXNX=X XR b x 6 F {.9.^.E.$.Q.7.s ",
":.:.;.:.:.e.} M < S { D.#XS.A.r.H.:X!.g.g.XXS.K.^ M 0.] ~ m x B ] K g M t.AX!.m M @.lXN.Q.@.T ,.",
"nX9X9X9X8XnX9Xr.| c * p 3.a.~.S.g.A.F._.].].].0X3.( VX~.BXa.t.} M [ 2XAXAX4XH.6X| d ^ ^.T.f -.AX",
"9.8.e.G.A.D.G.oX#Xr.] i e F 7./.4X0XxX[.P.u.0.*.I d 8.7X;.A.mX(.9X9X4XS.x.Z.Z.Z.bXj.M f D M JX0X",
"!.D.~.4X4XG.G.H.:X2XbXu.~ $ q I 9.} ^ V x x x d D s M r.5XF.:.H.8.!.~.e.q.;X<Xa.t.S.9X_ : <XAX:.",
"XXH.G.G.H.~.!.~.i.e.D.5XK.[ x 4 p a x K ' } P.lXlX| l q 7.nX9X,.1XG.q.e.!.!.a.a.A.z.@X7.F mX@X4X",
":X:XA.;.D.~././.D.~.D.Z.H.9X5.x   L U.lXlX'.'.'.M.m.U.` 0 P j.:XZ.Z.J.H.S.;.;.D.Z.,X;XbXD g 6.F.",
"t.1X1XH.H.~.G.G.@XH.e.!.9X;X{ d f T.cXW.%.M.9.9.B.m.$.^.O.n c y.9X9X4XoXoX4X4X_.r.0.' n b o 7 ~ ",
"d { i.1X9X6XoXoXoX:XXXG.~.e.~ * Q.lXB. .I.I.m.T.m.N.F.n.xX@.l - V K ! ' [ -.} [ B > > # X Z Z . ",
"s . Y X.P._.4X4Xa.~.L.K.w.*.s ` cXM.M.B.B.B.m.Y.C.C.C.n.y.~ s ' _ ( R P < o 8 # e s U w.{ O ` ..",
"@.D 8 + j ' [ 7.t.;XD.u.L 0 ; X.).b.B.I.N.N.m.m.y.y.^.Y.O.$ /.VX1XoXAX7.d *.>.t.l.tXGXKX<.- P.pX",
"xX`.` z * 8 y G R [ _ i o e q X.).B.N.m.b.B.B.I.C.[.R.@.s X.bXt.;.S.H.i.N uXdXaXwX-X1.v.E S lXn.",
" .`.R.T._ r X * $ $ d 9 p b @ 7.).B.N.I.I.B.M.n.n.$.^.` ..AXoX#XvX;X{ _ / FX1.XX X.XqXh.g Q xXW.",
"].).$.W.| u 3./.jXs.mX9XmX<X~ _ R.E.E.I.R.R.R.C.M.Q.+.2 y.bXe.) c M P   ] GX$X,XeX+XtX4.# y.xX$.",
"M.N.B.`.+.q | SXs.G.K.K.c.7Xe.M  .P.U.T.T.T.Y.I.B.P.Q 1 k y i i s 2X9Xm 6.HX.X+X%XOXiX=.9 [.[.F.",
"'.B.V.Q.y.F z J.4XH.A.4XJ.Z.9X!.z m M D G z z z k S S q ~ 8.G.6.s 6.6X:XW -.DX,X$X%X#Xp F {.n.b.",
"E.B.V.M.zXX.# =.K.4XG.a.vX~.q.4Xp.' * = t & 0 b ) 5.a.VXaX#X@X9Xi { XXe.bXh V k.wXuXx.* o.cX%.kX"
};
