/* XPM */
static char *_e01a4c94ecd40829de89f1df2f25341f9IKWMNHy5BbMHQx[] = {
/* columns rows colors chars-per-pixel */
"64 64 14 1 ",
"  c #674848",
". c #654646",
"X c #1C1515",
"o c #593E3E",
"O c #291E1E",
"+ c #493333",
"@ c #392929",
"# c #725050",
"$ c #6B4B4B",
"% c #7C5757",
"& c #0F0B0B",
"* c #8A6161",
"= c #9F6F6F",
"- c #BF8787",
/* pixels */
"OOOOOOOOOOOOOOX&&OOOOOX&X@OOOOOOOO&&O@OO@OOOOOOOX&&OOOOOOOOOOOOO",
".oo..o..oooooo+X&o...o+Xo ......o+OX. ........oo+&O.......oooooo",
". $     .     oX&.    +X.$  . .  .OO#  .. .  .. +X@$  ..     .  ",
"     . .  .  .oX&o . $+X.  ...   .OO%.....      oX@$   . ...   .",
" .  ..  ...   oX&.    +X$ ... .  .OO#. ... .... oX+#.  ....   . ",
"    .    .    oXX$ .. oX. .  ... .OO#. .     .  oX+#.  ....     ",
".  .. .       oXX$    oX#$.   ....OO%.  .. ..   oX+#  .. ...   .",
" ...   .      .XX.    oX%$.... . .O@*.      .   oX+#.. .  .  $ .",
"$$          . .OX$. ..oX%$...... .O@=...  ......oXo*$$         .",
"==%%%%##%# .o..XX*%###+&%*%%%%%#$#OO-=****%%##%# X@==*%%*%###$$$",
"&&&&&&&&&&&&&&&&&O@OOOX&X@@@@@@OO@&&@+@+@@@@@@@@O&&XXXXXXXXXXXXX",
"OXXXXOXXOOXXXXX&X++@@+@@@@@@@X&@++@@@@@@O&O++++++++++@X&+++++@@@",
"....o.....oooo+X@$$ $  $   .o@X    $ ...oX+$ .    ...oOO   .   .",
".  .          +X+#    . .    @X#   .... oO+$..    .  .OO ...    ",
". .    ..     +X+$ .. .     .+X#   .... oO+$....     .O@#  ..   ",
"..   .    .   oXo#    . .....+X$...   ...Oo$ .      ..O@$. .   .",
"    . ..  .   oX.%.     .    +X# .      .Oo$       ...O@#. .  ..",
". $..         oX.%. ....  .  +X%  .  .. .Oo$.  ..   ..O@#.... . ",
"            . oX.%.    .  .  +X#      . .O+   . ..   .O@#...    ",
"$$  $         .X#=$$        .oX*$       .O.#$       $ O+*$$$$$$ ",
"=****%%%%#.$$.o&+-=**%%%%%%##+&#*%%%%#$#$O+%# .oooooooOO**%%%%##",
"OOOOXXOOOOOOOOXXXOXO@@@@@O@OOX&XOOOOOOOOOXXXXXXXXXXXXX&XXX&OOOOO",
"ooo+Oo..oo.oooooo+Xo....oooooO&oo.ooooooo++o+oo++++o+++++XX..oo.",
"   o@$  $  $    $oOo .   .. .OX.         $     $$$    . oOO#    ",
".  o@#...     .  oO. .      .@X..    .     .. .     ..  oOX  .. ",
" . o@#.. .. ..   oO. . .  . .@X.         . ....    ...  .OX$   .",
"   o@$. ...      oOo   .... .@O$.   . .. ..  .. ... ..  .OO$  . ",
".  o@%  . .   .. .O$$  .. . .@O%.   . ..  .  .  .    .  .OO# .  ",
"   o@% ...    .  .O#$.. .   .@O%.......  ...   .        .OO#..  ",
" ...+= ....  .... O%$........@O%............. .. ....   .@O*..  ",
"$$$.@-=*%%%%%###$$O%=%##%%$##@O=***%####%######$.$#$$....OO*####",
"@@@O&@oo++++++++@@&X+@@@@@@@@X&@++++@@@@+@@@@@@@O@@@@OOOO&&@++++",
"XXXXXX&XXXXXXX&&&XXXXX&&XXXXXXXXXX&&XOOXXXXXXXXXX&&XXXXXXXXXXXXX",
".oooooooooooo+@XX.oooo@Xo.o.o.ooo+XO ....o.o.ooo@X@.o.o.oooooooo",
"        . ... oXX    .+X$       $oO@#.   .      +X+$ .        . ",
".  .  .      .oXX. .  +X#   ..   oO+%. ... . .. +Xo$..   .  .  .",
"  . ..    .   oXX...  +X# .      oO@#. ..    .  +X+$.  .  . ..  ",
"    . ..  ... oXO$    +X%        .O+%. ...  ... oXo$.. .    ... ",
"    .     .   oXO$    +X% ....  ..O+%...        oXo$.. .... . . ",
"            . oXO$..  +O%  ..... .O+%.        . oX.#..   . ..  .",
" .... . ..    oXO#... +O% ........Oo=... ...... oX#*. .     . ..",
"==*%**%%%%## .oXO*#$#$oX**%##%###$O+-**%%%%##%##oXo-==**%%*%%###",
"OOOOXXOOOOXXXXX&&++@+@O&@oo++o+++@XXo.oooooo+o++@XXO@O@@O@OOOOOO",
"++@@X&@++@@@@@@@@X&@+++++@+@@@O&@+++@@@@O&+++++++@@@XO++++++++@@",
" . oOX.   ......o@Xo   . ... o@Xo$   $ .@X#  . . ..oO+#         ",
".. .OO$ . .     .@X. . . ..   +X.      .@X     . ..oO+#..   ..  ",
".  .OX    .    . +X. ... .  . +Xo      .@X#    . . .O+#.  .     ",
"   .OX$     .  . +X.   ..  .. +Xo       @X#  ..    .O+#        .",
" . .@O#        . +X     ....  +X.   ..  +X%     .  oOo%..      .",
".. .OO#.  . .    +X# ...    . +X$ .. .. +X%  .     .Oo%.....    ",
"   .O@%  . .     +X#  ..  .   +X%$ ...  +X*   ..  ..O.%.. ...   ",
"   .@@*$$$$      +X*$$        oX*#    $ +X*$$ $ $  .O$=$$$ $ $  ",
"#. oOX****%%#%## +&$*%%###$$ o@&.%%$###o@&#**%*%% #$O@==**%*%##$",
"XXXX&&XXXXXX&XXXXX&XX&XOOXXXXX&&XOOOOOXXXXXOOXOXXXOOXXXOOOOOOOXO",
"oooooooooo+@&+oooooo@X+oooooo+O&ooooo+X@oooooo+@X+oooooo++o+++++",
"  .     . .+X.      +Xo      .@X..   oX+$     .+Xo  ..       $ .",
"... ...   .+X.   $  oX.  .. ..@X. .. oXo$ .   .+X       .  .....",
"   . .   ..@Xo   .. oX.  ... .@Xo .. oXo$..... +X    .   .  ....",
".  ..      +X.  ..  oX. ...  .@X     oXo$      +X#$    .        ",
".          +X.    ..oO$ ....  @X$.   oXo$   . $+X$     ...   .  ",
" .         +X. .  . oO#  .    +X. .  oXo$ .  . +X#   ....  . .  ",
"......... $+X#.. .. oO#       +X$.. .oXo$.. .. oX* ....... .....",
"%%%######$$oX%##$$  oO%#$$$$$$+X%#$$$oX %##$  $oX*=*%**%###%#$##",
"%%####$. oo@&+ .oooo+&+# $..o+O&+.ooo+&@#$$.ooo+XOoo+o+@++++@@+@"
};
